REM MD5 1b4742f8c7aec627611746250f7be885
FILE "Euro Demo 11-00 (Germany).bin" BINARY
  TRACK 01 MODE2/2352
    INDEX 01 00:00:00
  TRACK 02 AUDIO
    INDEX 00 40:51:38
    INDEX 01 40:53:38
  TRACK 03 AUDIO
    INDEX 00 42:36:33
    INDEX 01 42:38:33
REM LEADOUT 45:39:66
